<?xml version="1.0" encoding="UTF-8"?>
<svg xmlns="http://www.w3.org/2000/svg" viewBox="0 395 336 85" role="img" aria-label="LivingApple">
  <defs>
    <style>
      .cls-1 { fill: #fcaf1a; }
      .cls-2, .cls-3 { fill: #006cb7; }
      .cls-3 { fill-rule: evenodd; }
    </style>
  </defs>
  <g>
    <path class="cls-3" d="M305.1772,403.1925c-1.7217,1.0791-8.7978,8.5932-8.3769,11.8149,15.0293-9.4463,22.33-6.2319,27.4902-12.458-2.794,0-11.8145-3.4336-18.6846.4316,0,.2115-.2148.2115-.4287.2115ZM271.9614,412.5401v-1.7187c4.9326-.4248,15.9023-1.2237,22.6963,5.2573,5.3652-19.3213,15.0273-19.5425,23.4043-17.1758,4.9414,2.5781,7.5176,2.5781,10.0927,3.4356,1.709,6.2251-32.2109,11.3779-31.5634,14.3828.209,6.0132.8564,7.7329-1.0821,10.9511-.4179.2168-1.0742-6.4419-2.5752-9.663-4.3525-6.6646-16.2558-5.9014-20.9726-5.4693Z"/>
    <path class="cls-3" d="M307.9643,413.9327c-1.2764-.4321-2.7871.2129-4.5088.644,15.8936,3.8672,21.1084,20.8379,15.5254,35.0035-3.2217,7.956-9.9346,14.603-18.3086,17.8139h3.4346c20.6074-11.3745,30.2764-44.4453,3.8574-53.4614h0Z"/>
    <path class="cls-3" d="M291.6499,399.7613l-4.5137-.2183,4.083,11.8116s.2158,2.146,3.0098,1.9336l-2.5791-13.5269h0Z"/>
  </g>
  <g>
    <path class="cls-2" d="M0,461.9707v-44.0762h5.541v44.0762H0Z"/>
    <path class="cls-2" d="M15.1738,425.0098c0-.8394.2832-1.606.8501-2.2983.5669-.6929,1.395-1.0391,2.4873-1.0391,1.0908,0,1.9204.3462,2.4868,1.0391.5669.6924.8501,1.459.8501,2.2983,0,.8398-.2832,1.6055-.8501,2.2979-.5664.6929-1.396,1.0391-2.4868,1.0391-1.0923,0-1.9204-.3462-2.4873-1.0391-.5669-.6924-.8501-1.458-.8501-2.2979ZM15.7407,461.9707v-30.2236h5.541v30.2236h-5.541Z"/>
    <path class="cls-2" d="M56.1016,431.7471l-10.5781,27.7681c-.5039,1.3438-1.1021,2.1938-1.7944,2.5498-.6929.3564-1.522.5356-2.4873.5356-.9663,0-1.7944-.1792-2.4873-.5356-.6924-.356-1.2905-1.2061-1.7944-2.5498l-10.5151-27.7681h6.0444l8.8154,23.4233,8.7524-23.4233h6.0444Z"/>
    <path class="cls-2" d="M60.6343,425.0098c0-.8394.2832-1.606.8501-2.2983.5669-.6929,1.395-1.0391,2.4873-1.0391,1.0908,0,1.9204.3462,2.4868,1.0391.5669.6924.8501,1.459.8501,2.2983,0,.8398-.2832,1.6055-.8501,2.2979-.5664.6929-1.396,1.0391-2.4868,1.0391-1.0923,0-1.9204-.3462-2.4873-1.0391-.5669-.6924-.8501-1.458-.8501-2.2979ZM61.2012,461.9707v-30.2236h5.541v30.2236h-5.541Z"/>
    <path class="cls-2" d="M75.5571,461.9707v-17.6304c0-1.9727.3247-3.7783.9761-5.415.6504-1.6372,1.5522-3.0322,2.7075-4.1875,1.1538-1.1538,2.5186-2.0464,4.0928-2.6763,1.5742-.6294,3.2842-.9443,5.1318-.9443,1.8467,0,3.5576.3149,5.1318.9443,1.5737.6299,2.9375,1.5225,4.0928,2.6763,1.1538,1.1553,2.0562,2.5503,2.7075,4.1875.6499,1.6367.9756,3.4424.9756,5.415v17.6304h-5.541v-17.6304c0-1.1748-.1997-2.2451-.5981-3.2114-.3994-.9653-.9346-1.7944-1.6055-2.4873-.6719-.6924-1.4482-1.2378-2.3296-1.6372-.8818-.3984-1.8262-.5981-2.8335-.5981s-1.9521.1997-2.8335.5981c-.8818.3994-1.6587.9448-2.3301,1.6372-.6719.6929-1.207,1.522-1.6055,2.4873-.3994.9663-.5981,2.0366-.5981,3.2114v17.6304h-5.541Z"/>
    <path class="cls-2" d="M128.9521,460.5854c-1.0498.5884-2.2354,1.0703-3.5576,1.4482s-2.5088.5669-3.5576.5669c-2.2251,0-4.2817-.3887-6.1704-1.165-1.8892-.7764-3.5371-1.8467-4.9429-3.2114-1.4072-1.3633-2.5088-2.98-3.3057-4.8481-.7979-1.8677-1.1963-3.9141-1.1963-6.1392,0-2.2671.3667-4.3765,1.1016-6.3281.7339-1.9521,1.7837-3.6523,3.1484-5.1006,1.3638-1.4482,3.0117-2.5913,4.9429-3.4316,1.9302-.8389,4.0713-1.2593,6.4224-1.2593,2.3081,0,4.3765.4312,6.2021,1.291,1.8262.8608,3.3789,1.9834,4.6597,3.3687,1.2798,1.3853,2.2666,2.981,2.9595,4.7852.6924,1.8057,1.0391,3.6523,1.0391,5.541v13.4751c0,2.854-.4097,5.3306-1.228,7.4297-.8184,2.0986-1.9312,3.8413-3.3374,5.2266-1.4067,1.3853-3.0752,2.4131-5.0054,3.085-1.9316.6714-4.0093,1.0078-6.2339,1.0078-1.7217,0-3.4111-.1577-5.0688-.4722-1.6587-.3149-3.2852-.7461-4.8799-1.291l1.3223-5.0371c1.3853.3774,2.7705.7241,4.1558,1.0386,1.3853.3149,2.7915.4722,4.2188.4722,1.2593,0,2.5078-.1572,3.7466-.4722,1.2378-.3145,2.3613-.8398,3.3687-1.5742,1.0073-.7349,1.8262-1.7104,2.4556-2.9277.6299-1.2178.9448-2.75.9448-4.5967v-14.1045c0-1.6782-.252-3.2002-.7559-4.5649-.5034-1.3633-1.1963-2.5186-2.0776-3.4629-.8818-.9448-1.8999-1.6689-3.0542-2.1724-1.1548-.5039-2.3828-.7559-3.6831-.7559-1.6372,0-3.0757.3052-4.3135.9131-1.2388.6089-2.2666,1.4277-3.0854,2.4556-.8184,1.0293-1.4272,2.2148-1.8257,3.5576-.3994,1.3442-.5981,2.75-.5981,4.2188,0,1.4702.2617,2.813.7871,4.0298.5239,1.2183,1.2373,2.2466,2.1406,3.0854.9023.8403,1.9727,1.4907,3.2114,1.9521,1.2373.4624,2.5708.6924,3.998.6924,1.2593,0,2.4766-.2515,3.6523-.7554,1.1743-.5039,2.3081-1.0703,3.3999-1.7002v5.73Z"/>
    <path class="cls-1" d="M166.1655,461.9707v-17.001c0-1.4263-.2739-2.6758-.8188-3.7466-.5459-1.0703-1.2808-1.9614-2.2036-2.6758-.9238-.7134-1.9736-1.2485-3.1484-1.606-1.1758-.356-2.3926-.5352-3.6519-.5352-1.5112,0-2.8867.2837-4.1245.8501-1.2388.5669-2.2886,1.333-3.1484,2.2983-.8608.9663-1.522,2.0889-1.9834,3.3687-.4624,1.2812-.6924,2.6348-.6924,4.0615,0,1.3853.2407,2.7075.7241,3.9668.4819,1.2593,1.1646,2.3613,2.0464,3.3057.8813.9443,1.9204,1.6904,3.1167,2.2354,1.1963.5459,2.5283.8184,3.9985.8184,1.5947,0,3.0225-.3877,4.2817-1.1646,1.2593-.7764,2.3711-1.7729,3.3369-2.9912v6.5488c-1.0918.8398-2.2461,1.5327-3.4629,2.0776-1.2183.5449-2.7925.8188-4.7227.8188-2.1831,0-4.1772-.4204-5.9819-1.2598-1.8052-.8389-3.3687-1.9834-4.6909-3.4316s-2.3511-3.1479-3.085-5.1001c-.7354-1.9521-1.1021-4.0396-1.1021-6.2651,0-2.1406.356-4.1558,1.0703-6.0449.7134-1.8887,1.7412-3.5259,3.0854-4.9111,1.3428-1.3853,2.98-2.4766,4.9111-3.2744,1.9307-.7969,4.1138-1.1963,6.5488-1.1963,2.3081,0,4.4072.3364,6.2964,1.0073,1.8892.6724,3.4946,1.6372,4.8169,2.8965s2.3398,2.7705,3.0537,4.5337c.7134,1.7632,1.0708,3.7368,1.0708,5.9189v16.4971h-5.541Z"/>
    <path class="cls-1" d="M176.7437,475.5713v-27.8311c0-2.4761.3779-4.7432,1.1338-6.8003.7559-2.0562,1.8047-3.8096,3.1484-5.2578,1.3428-1.4482,2.9482-2.5708,4.8164-3.3687,1.8672-.7969,3.9141-1.1963,6.1396-1.1963,2.4336,0,4.6279.4409,6.5801,1.3223,1.9521.8818,3.5889,2.0781,4.9111,3.5894s2.3389,3.2642,3.0537,5.2573c.7129,1.9946,1.0703,4.104,1.0703,6.3281,0,2.0996-.3994,4.0615-1.1963,5.8877-.7979,1.8257-1.8574,3.4106-3.1797,4.7539-1.3223,1.3438-2.8652,2.4033-4.6279,3.1797s-3.6104,1.165-5.541,1.165c-1.5107,0-2.9814-.1685-4.4072-.5039-1.4277-.3354-2.8135-.8813-4.1562-1.6372v-5.793c1.0078.7144,2.2139,1.333,3.6211,1.8574,1.4053.5254,2.7383.7871,3.998.7871,3.0225,0,5.4355-.9443,7.2412-2.8335,1.8037-1.8887,2.707-4.4072,2.707-7.5557,0-1.5527-.252-2.9692-.7549-4.2505-.5039-1.2798-1.1973-2.3818-2.0781-3.3057-.8818-.9229-1.9424-1.647-3.1797-2.1724-1.2393-.5244-2.5928-.7871-4.0615-.7871-1.3438,0-2.6035.252-3.7783.7559-1.1758.5034-2.2031,1.27-3.085,2.2983-.8818,1.0288-1.5742,2.3198-2.0781,3.8721-.5039,1.5537-.7559,3.3589-.7559,5.4155v26.8232h-5.541Z"/>
    <path class="cls-1" d="M211.7524,475.5713v-27.8311c0-2.4761.3779-4.7432,1.1338-6.8003.7549-2.0562,1.8037-3.8096,3.1484-5.2578,1.3428-1.4482,2.9482-2.5708,4.8164-3.3687,1.8672-.7969,3.9141-1.1963,6.1396-1.1963,2.4336,0,4.6279.4409,6.5801,1.3223,1.9512.8818,3.5889,2.0781,4.9111,3.5894s2.3389,3.2642,3.0537,5.2573c.7129,1.9946,1.0703,4.104,1.0703,6.3281,0,2.0996-.3994,4.0615-1.1963,5.8877-.7979,1.8257-1.8574,3.4106-3.1797,4.7539-1.3223,1.3438-2.8652,2.4033-4.6279,3.1797-1.7637.7764-3.6113,1.165-5.541,1.165-1.5117,0-2.9814-.1685-4.4082-.5039-1.4277-.3354-2.8125-.8813-4.1553-1.6372v-5.793c1.0068.7144,2.2139,1.333,3.6201,1.8574,1.4062.5254,2.7393.7871,3.999.7871,3.0215,0,5.4355-.9443,7.2402-2.8335,1.8047-1.8887,2.708-4.4072,2.708-7.5557,0-1.5527-.252-2.9692-.7559-4.2505-.5039-1.2798-1.1963-2.3818-2.0771-3.3057-.8818-.9229-1.9424-1.647-3.1807-2.1724-1.2383-.5244-2.5918-.7871-4.0605-.7871-1.3447,0-2.6035.252-3.7783.7559-1.1758.5034-2.2041,1.27-3.085,2.2983-.8818,1.0288-1.5742,2.3198-2.0781,3.8721-.5039,1.5537-.7559,3.3589-.7559,5.4155v26.8232h-5.541Z"/>
    <path class="cls-1" d="M248.4614,461.9707v-44.0762h5.541v44.0762h-5.541Z"/>
    <path class="cls-1" d="M269.9946,452.022l-2.2666-4.4077,14.9229-8.3115c-.9658-.9648-1.9199-1.689-2.8643-2.1724-.9453-.4819-2.2783-.7241-3.999-.7241-1.4277,0-2.75.252-3.9668.7559-1.2178.5034-2.2666,1.2178-3.1484,2.1406-.8809.9238-1.5645,2.0259-2.0459,3.3057-.4834,1.2812-.7246,2.6978-.7246,4.2505s.2412,2.9702.7246,4.25c.4814,1.2812,1.165,2.3828,2.0459,3.3057.8818.9238,1.9307,1.6372,3.1484,2.1411,1.2168.5039,2.5391.7554,3.9668.7554,1.6377,0,3.0322-.23,4.1875-.6924,1.1543-.4614,2.1191-1.1118,2.8965-1.9521.7764-.8389,1.4062-1.8359,1.8887-2.9907.4824-1.1543.8711-2.4243,1.165-3.8096l5.6045.6929c-.1689,2.0146-.6729,3.8721-1.5117,5.5723-.8398,1.7002-1.9521,3.1797-3.3369,4.439-1.3857,1.2598-3.002,2.2466-4.8486,2.9595-1.8477.7134-3.8623,1.0708-6.0449,1.0708-2.0996,0-4.0928-.3779-5.9814-1.1338-1.8887-.7554-3.5576-1.8257-5.0059-3.2109s-2.5928-3.043-3.4316-4.9746c-.8408-1.9302-1.2598-4.0708-1.2598-6.4224,0-2.3081.4189-4.4282,1.2598-6.3599.8389-1.9302,1.9834-3.5889,3.4316-4.9741s3.1172-2.4653,5.0059-3.2427c1.8887-.7764,3.8818-1.165,5.9814-1.165,3.5674,0,6.5381.8608,8.9102,2.5815,2.3711,1.7217,4.2705,4.0518,5.6982,6.9893l-20.4014,11.334Z"/>
  </g>
</svg>
